<svg width="75" height="75" fill="none" xmlns="http://www.w3.org/2000/svg"><g id="speed"><path id="svg-ico" d="M36.635 39.068a.986.986 0 01-.703-.293.997.997 0 01.014-1.406l18.706-18.312a1.01 1.01 0 011.406.014.993.993 0 01-.014 1.406l-18.706 18.31c-.206.19-.454.279-.703.279v.002z" fill="#FE1C7C"/><path id="Vector" d="M37.486 74.077c-20.112 0-36.46-16.348-36.46-36.46 0-20.111 16.348-36.46 36.46-36.46a36.391 36.391 0 0123.6 8.673c.41.351.468.982.116 1.392a.995.995 0 01-1.392.117A34.45 34.45 0 0037.5 3.136c-19.029 0-34.498 15.469-34.498 34.484 0 19.014 15.47 34.48 34.484 34.48 19.015 0 34.483-15.468 34.483-34.48a34.458 34.458 0 00-8.158-22.266.982.982 0 01.117-1.392.981.981 0 011.392.117 36.434 36.434 0 018.628 23.54c0 20.112-16.362 36.46-36.46 36.46l-.002-.002z" fill="#fff"/><path id="Vector_2" d="M23.482 60.527a.989.989 0 01-.527-.147.994.994 0 01-.321-1.362c3.208-5.128 8.744-8.203 14.838-8.203 6.094 0 11.646 3.06 14.838 8.203a.99.99 0 01-.307 1.362.984.984 0 01-1.362-.321c-2.84-4.557-7.764-7.266-13.155-7.266-5.405 0-10.313 2.71-13.155 7.266a.988.988 0 01-.851.468h.002z" fill="#fff"/><path id="svg-ico_2" d="M20.595 24.858a3.957 3.957 0 113.956-3.956 3.968 3.968 0 01-3.957 3.956zm0-5.946c-1.1 0-1.979.893-1.979 1.978s.893 1.978 1.979 1.978a1.988 1.988 0 001.978-1.978 1.988 1.988 0 00-1.979-1.978z" fill="#FE1C7C"/><path id="svg-ico_3" d="M37.369 17.871a3.957 3.957 0 11.002-7.91 3.957 3.957 0 01-.002 7.91zm0-5.932c-1.1 0-1.978.893-1.978 1.978s.893 1.978 1.978 1.978a1.978 1.978 0 000-3.956z" fill="#FE1C7C"/><path id="svg-ico_4" d="M61.127 41.733a3.957 3.957 0 113.956-3.956 3.968 3.968 0 01-3.956 3.956zm0-5.946a1.979 1.979 0 000 3.956 1.988 1.988 0 001.978-1.978 1.979 1.979 0 00-1.978-1.978z" fill="#FE1C7C"/></g></svg>