<svg width="75" height="75" fill="none" xmlns="http://www.w3.org/2000/svg"><g id="window (1)"><path id="svg-ico" d="M26.747 32.212H12.83a.99.99 0 00-.996.997v23.847c0 .558.44.996.996.996h13.917c.558 0 .996-.44.996-.996V33.21a.988.988 0 00-.996-.997zm-.98 23.848H13.828V34.205h11.925V56.06h.014z" fill="#FE1C7C"/><path id="Vector" d="M74.341 23.892V9.478a.99.99 0 00-.996-.996H1.671a.99.99 0 00-.996.996v57.35c0 .557.44.995.996.995H73.36c.542 0 .997-.44.997-.996V23.981c-.015-.028-.015-.06-.015-.089zM2.651 10.474h69.712v12.35H2.651v-12.35zm0 55.355V24.813h69.712v41.03H2.651v-.014z" fill="#fff"/><path id="Vector_2" d="M12.16 12.422a3.974 3.974 0 00-3.97 3.97 3.983 3.983 0 003.97 3.97 3.974 3.974 0 003.97-3.97c.014-2.182-1.772-3.97-3.97-3.97zm0 5.962c-1.1 0-1.993-.893-1.993-1.992s.91-1.978 1.992-1.978c1.1 0 1.993.893 1.993 1.992 0 1.1-.893 1.978-1.993 1.978z" fill="#fff"/><path id="Vector_3" d="M23.423 12.422a3.974 3.974 0 00-3.97 3.97 3.983 3.983 0 003.97 3.97 3.983 3.983 0 003.97-3.97c.015-2.182-1.771-3.97-3.97-3.97zm0 5.962a1.993 1.993 0 01-1.992-1.992 1.993 1.993 0 013.985 0c0 1.1-.893 1.992-1.993 1.992z" fill="#fff"/><path id="Vector_4" d="M34.688 12.422a3.974 3.974 0 00-3.97 3.97 3.983 3.983 0 003.97 3.97c2.184 0 3.984-1.771 3.984-3.956a3.987 3.987 0 00-3.984-3.984zm0 5.962c-1.1 0-1.993-.893-1.993-1.992a1.993 1.993 0 013.985 0c0 1.1-.893 1.992-1.992 1.992z" fill="#fff"/><path id="svg-ico_2" d="M61.362 40.313H37.514a.988.988 0 00-.996.996c0 .555.44.996.996.996h23.848c.557 0 .996-.44.996-.996 0-.542-.455-.996-.996-.996z" fill="#FE1C7C"/><path id="svg-ico_3" d="M61.362 48.019H37.514a.988.988 0 00-.996.996c0 .541.44.996.996.996h23.848c.557 0 .996-.44.996-.996a.998.998 0 00-.996-.996z" fill="#FE1C7C"/><path id="svg-ico_4" d="M55.575 55.737h-17.9a.988.988 0 00-.995.996c0 .555.44.996.996.996H55.56c.558 0 .996-.44.996-.996a.995.995 0 00-.982-.996z" fill="#FE1C7C"/></g></svg>